<svg width="143" height="43" viewBox="0 0 143 43" fill="none" xmlns="http://www.w3.org/2000/svg">
<path fill-rule="evenodd" clip-rule="evenodd" d="M106.205 23.3417C109.243 22.7918 111.511 25.0439 111.841 27.7075C112.749 35.0585 102.695 36.1285 101.986 29.4358C101.634 26.1026 103.344 23.8617 106.205 23.3454V23.3417ZM72.4513 25.0513C72.7513 24.8867 72.9576 24.4677 73.3401 24.1722C75.9126 22.197 79.9813 23.5886 80.1538 28.1115C80.2813 31.4934 78.3013 34.1495 75.1626 33.8352C73.6138 33.6781 73.2726 32.9524 72.7401 32.5932L72.7326 37.7633L70.4676 37.7034L70.4638 27.0528C70.4638 26.0128 70.3026 24.4565 70.4038 23.5138L72.3576 23.54L72.4476 25.0476L72.4513 25.0513ZM49.5051 19.6119L52.2651 19.6344L56.7613 33.6519L54.3651 33.622L53.0751 29.5368L48.5788 29.5518C48.1438 30.2065 47.5288 32.6905 47.2326 33.6444L44.9076 33.637L49.5051 19.6082V19.6119ZM128.701 33.2217C126.343 34.2018 123.489 34.1158 121.839 32.6306C118.464 29.5967 120.781 21.8416 126.485 23.5063C128.484 24.0899 129.755 26.5141 129.211 29.1103L122.484 29.1066C122.701 33.2591 126.781 31.9647 128.401 31.7029L128.705 33.2254L128.701 33.2217ZM115.858 25.4142C116.439 24.2171 117.339 23.0724 119.199 23.3754L119.188 25.4404C117.185 25.4217 116.244 26.11 116.131 28.104C116.034 29.8847 116.184 31.8001 116.116 33.6482L113.863 33.5995L113.833 23.5175L115.749 23.5437L115.858 25.4142ZM98.1801 21.026L98.1951 23.51L100.67 23.5362L100.663 25.1972L98.2101 25.2234C98.1238 26.6675 98.1763 28.3621 98.1876 29.8249C98.2101 32.0321 98.5776 31.9049 100.52 31.9685L100.531 33.607C94.5388 35.2381 96.2151 29.2637 95.9451 25.2085L94.4863 25.1823L94.5201 23.5213L95.9638 23.5063L95.9788 21.6657L98.1838 21.0185L98.1801 21.026ZM60.7701 25.0888C61.3438 24.5351 61.7563 23.8879 62.7876 23.54C68.4838 21.6321 70.3438 30.6442 66.2563 33.2067C65.4763 33.6968 64.3851 33.9624 63.2601 33.809C61.8238 33.6145 61.7563 33.0085 61.0401 32.582L61.0326 37.767L58.7788 37.7633L58.6851 23.5362C59.0188 23.5138 59.3563 23.5063 59.6938 23.5063C59.8138 23.5063 60.1026 23.5063 60.2151 23.5213L60.7738 25.085L60.7701 25.0888ZM84.9951 31.1791C86.1801 31.542 86.8213 32.1106 88.5351 32.0021C89.7801 31.9198 90.8338 31.31 90.9238 30.0867C91.0963 27.6775 87.8488 27.4531 86.2738 26.2709C83.2363 23.9926 84.7551 19.6381 89.0601 19.4174C90.7326 19.3313 91.3101 19.6606 92.6938 20.0309L92.0638 21.849C91.1526 21.4375 89.6713 21.0559 88.5126 21.3665C87.1513 21.7293 86.6863 22.8441 87.1326 23.828C87.5263 24.6922 88.5876 25.1149 89.6301 25.5601C94.9926 27.8534 93.3726 31.7552 91.4601 33.0122C89.7201 34.1532 86.2963 34.1457 84.5001 32.9785L84.9988 31.1829L84.9951 31.1791ZM35.4838 26.7872C35.2363 27.8608 34.4976 29.245 33.9613 30.1541C30.0276 36.8243 27.7251 32.1967 24.0238 32.9149C22.7676 33.1581 21.5488 34.0971 20.1763 33.8652C16.8276 33.3003 11.4088 23.6036 14.4801 17.3187C15.4101 15.4183 17.4276 13.4542 20.4051 13.544C22.1188 13.5964 22.9438 14.4007 24.2526 14.6326C25.3963 14.8384 26.8813 13.9443 28.0063 13.645C30.9576 12.8557 33.8713 14.5167 34.7863 16.0954C34.5351 16.3984 34.4526 16.3685 34.1563 16.6191C33.6388 17.0531 33.0238 17.7077 32.6826 18.3175C32.1126 19.3388 31.7976 20.4424 31.9213 21.7705C32.0638 23.3193 32.6938 24.5201 33.6351 25.4666C33.9576 25.7921 33.8451 25.7247 34.1863 25.9716C34.5801 26.2597 35.0938 26.4542 35.4913 26.7872H35.4838ZM24.5563 13.1362C24.1138 10.0088 27.1401 7.10947 29.9301 6.96357C30.0463 10.1995 27.7588 13.2934 24.5563 13.1362ZM0.0275879 7.38631V35.6272C0.0275879 39.3233 3.60884 42.6229 6.77384 42.6229H136.156C137.06 42.6229 138.204 42.2076 138.849 41.8784C139.738 41.4257 140.158 41.0703 140.821 40.4119C141.864 39.3757 142.903 37.6436 142.903 35.6272V7.38631C142.903 3.69019 139.321 0.390625 136.156 0.390625H6.77384C5.87009 0.390625 4.72634 0.805877 4.08134 1.13509C3.19259 1.58775 2.77259 1.94314 2.10884 2.60156C1.06634 3.63782 0.0275879 5.36991 0.0275879 7.38631Z" fill="black"/>
<path fill-rule="evenodd" clip-rule="evenodd" d="M106.569 25.0401C103.006 25.6761 103.633 33.0159 107.42 32.1854C108.133 32.0283 108.811 31.2951 109.078 30.79C109.479 30.0344 109.614 29.0542 109.543 28.1115C109.411 26.4131 108.388 24.7184 106.569 25.0439V25.0401Z" fill="black"/>
<path fill-rule="evenodd" clip-rule="evenodd" d="M61.0438 28.1077V29.2974C61.0438 33.3414 66.2901 33.0833 66.2113 28.5043C66.1363 24.1049 61.0438 23.9253 61.0438 28.1115V28.1077Z" fill="black"/>
<path fill-rule="evenodd" clip-rule="evenodd" d="M74.5888 25.2122C72.7326 25.7397 72.6576 27.3521 72.7363 29.4321C72.8038 31.2465 74.1501 32.7204 76.1038 31.9348C78.9988 30.7713 78.2076 24.1834 74.5926 25.2122H74.5888Z" fill="black"/>
<path fill-rule="evenodd" clip-rule="evenodd" d="M48.9988 27.7935L52.6176 27.7898L50.8176 21.7443C50.3188 22.4401 50.1088 23.8131 49.8313 24.7446C49.6251 25.4404 49.0176 27.1949 48.9988 27.7972V27.7935Z" fill="black"/>
<path fill-rule="evenodd" clip-rule="evenodd" d="M122.555 27.5279L127.089 27.5204C127.273 25.9791 126.361 24.8306 124.91 24.8419C123.605 24.8493 122.39 26.1475 122.551 27.5279H122.555Z" fill="black"/>
<path fill-rule="evenodd" clip-rule="evenodd" d="M74.5888 25.2122C78.2076 24.1835 78.9988 30.7714 76.1001 31.9348C74.1463 32.7167 72.8001 31.2427 72.7326 29.4321C72.6576 27.3521 72.7326 25.7397 74.5851 25.2122H74.5888ZM72.4476 25.0514L72.3576 23.5437L70.4038 23.5175C70.3026 24.4603 70.4638 26.0128 70.4638 27.0565L70.4676 37.7072L72.7326 37.767L72.7401 32.597C73.2688 32.9561 73.6138 33.6819 75.1626 33.839C78.3013 34.1532 80.2851 31.4971 80.1538 28.1152C79.9813 23.5924 75.9126 22.2007 73.3401 24.176C72.9576 24.4715 72.7513 24.8942 72.4513 25.0551L72.4476 25.0514Z" fill="white"/>
<path fill-rule="evenodd" clip-rule="evenodd" d="M61.0439 28.1077C61.0439 23.9253 66.1364 24.1011 66.2114 28.5006C66.2901 33.0795 61.0439 33.3377 61.0439 29.2936V28.104V28.1077ZM60.7739 25.0888L60.2151 23.525C60.1064 23.51 59.8176 23.51 59.6939 23.51C59.3601 23.51 59.0226 23.5175 58.6851 23.54L58.7789 37.767L61.0326 37.7708L61.0401 32.5857C61.7526 33.0122 61.8239 33.6145 63.2601 33.8128C64.3851 33.9662 65.4764 33.7006 66.2564 33.2105C70.3439 30.6479 68.4839 21.6358 62.7876 23.5437C61.7526 23.8916 61.3439 24.5388 60.7701 25.0925L60.7739 25.0888Z" fill="white"/>
<path fill-rule="evenodd" clip-rule="evenodd" d="M48.9988 27.7936C49.0213 27.1913 49.6251 25.4368 49.8313 24.741C50.1088 23.8095 50.3226 22.4403 50.8176 21.7407L52.6176 27.7862L48.9988 27.7899V27.7936ZM44.9076 33.6371L47.2326 33.6446C47.5288 32.6869 48.1438 30.2028 48.5788 29.5519L53.0751 29.5369L54.3651 33.6221L56.7613 33.652L52.2651 19.6345L49.5051 19.6121L44.9076 33.6408V33.6371Z" fill="white"/>
<path fill-rule="evenodd" clip-rule="evenodd" d="M84.9988 31.1754L84.5001 32.9711C86.2963 34.142 89.7201 34.1458 91.4601 33.0048C93.3726 31.7515 94.9926 27.8459 89.6301 25.5527C88.5876 25.1075 87.5263 24.6848 87.1326 23.8206C86.6863 22.8367 87.1513 21.7219 88.5126 21.359C89.6751 21.0485 91.1526 21.4338 92.0638 21.8416L92.6938 20.0235C91.3101 19.6531 90.7288 19.3239 89.0601 19.41C84.7551 19.6307 83.2363 23.9852 86.2738 26.2635C87.8488 27.4456 91.0963 27.6738 90.9238 30.0793C90.8376 31.3026 89.7801 31.9124 88.5351 31.9947C86.8213 32.1069 86.1801 31.5346 84.9951 31.1717L84.9988 31.1754Z" fill="white"/>
<path fill-rule="evenodd" clip-rule="evenodd" d="M106.569 25.0404C108.388 24.7149 109.415 26.4096 109.543 28.108C109.614 29.0545 109.479 30.0309 109.078 30.7866C108.808 31.2916 108.129 32.0248 107.42 32.182C103.633 33.0125 103.006 25.6726 106.569 25.0366V25.0404ZM106.209 23.342C103.348 23.8582 101.638 26.0991 101.99 29.4323C102.699 36.125 112.753 35.0588 111.845 27.704C111.515 25.0441 109.246 22.792 106.209 23.3382V23.342Z" fill="white"/>
<path fill-rule="evenodd" clip-rule="evenodd" d="M122.555 27.5282C122.394 26.1477 123.609 24.8496 124.914 24.8421C126.365 24.8309 127.273 25.9831 127.093 27.5207L122.559 27.5282H122.555ZM128.701 33.2182L128.398 31.6956C126.778 31.9613 122.698 33.2519 122.48 29.0994L129.208 29.1031C129.751 26.5069 128.48 24.0827 126.481 23.4991C120.781 21.8344 118.46 29.5895 121.835 32.6234C123.489 34.1086 126.343 34.1946 128.698 33.2145L128.701 33.2182Z" fill="white"/>
<path fill-rule="evenodd" clip-rule="evenodd" d="M95.9788 21.6696L95.9638 23.5102L94.5201 23.5252L94.4863 25.1862L95.9451 25.2124C96.2151 29.2676 94.5388 35.2457 100.531 33.6109L100.52 31.9724C98.5776 31.9088 98.2063 32.0359 98.1876 29.8288C98.1726 28.366 98.1238 26.6676 98.2101 25.2273L100.663 25.2011L100.67 23.5401L98.1951 23.5139L98.1801 21.0299L95.9751 21.6771L95.9788 21.6696Z" fill="white"/>
<path fill-rule="evenodd" clip-rule="evenodd" d="M115.858 25.4105L115.749 23.54L113.833 23.5138L113.863 33.5959L116.116 33.6445C116.184 31.7964 116.034 29.881 116.131 28.1003C116.244 26.1064 117.185 25.418 119.188 25.4367L119.199 23.3717C117.339 23.0649 116.439 24.2097 115.858 25.4105Z" fill="white"/>
<path fill-rule="evenodd" clip-rule="evenodd" d="M35.4876 26.7874C35.0901 26.4544 34.5763 26.2561 34.1826 25.9718C33.8413 25.7249 33.9538 25.7923 33.6313 25.4668C32.6901 24.524 32.0601 23.3194 31.9176 21.7707C31.7938 20.4389 32.1088 19.339 32.6788 18.3177C33.0201 17.7079 33.6388 17.0533 34.1526 16.6193C34.4488 16.3687 34.5313 16.3986 34.7826 16.0956C33.8676 14.5169 30.9501 12.8558 28.0026 13.6452C26.8776 13.9482 25.3926 14.8386 24.2488 14.6328C22.9401 14.3971 22.1188 13.5966 20.4013 13.5442C17.4238 13.4507 15.4063 15.4184 14.4763 17.3189C11.4013 23.6038 16.8201 33.3005 20.1726 33.8653C21.5451 34.0973 22.7638 33.1583 24.0201 32.9151C27.7213 32.1969 30.0238 36.8282 33.9576 30.1543C34.4938 29.2415 35.2326 27.861 35.4801 26.7874H35.4876Z" fill="white"/>
<path fill-rule="evenodd" clip-rule="evenodd" d="M24.5564 13.1365C27.7589 13.2937 30.0464 10.1998 29.9301 6.96387C27.1364 7.10977 24.1139 10.0053 24.5564 13.1365Z" fill="white"/>
<path d="M46.6176 12.6501L47.4763 12.4331C47.5401 12.7623 47.7163 13.0915 47.9976 13.4207C48.2826 13.7499 48.6576 13.9145 49.1263 13.9145C49.6026 13.9145 49.9776 13.7911 50.2551 13.5479C50.5288 13.3048 50.6676 13.0092 50.6676 12.6613C50.6676 12.2872 50.5213 11.9879 50.2326 11.7672C49.9438 11.5465 49.5501 11.4343 49.0513 11.4343H48.6201V10.6449C49.0326 10.6449 49.3476 10.6225 49.5688 10.5738C49.7863 10.5252 49.9813 10.4055 50.1501 10.2072C50.3188 10.0127 50.4013 9.78821 50.4013 9.53756C50.4013 9.24202 50.2888 8.98389 50.0563 8.76691C49.8276 8.54994 49.5163 8.43771 49.1263 8.43771C48.7851 8.43771 48.4926 8.52375 48.2488 8.69583C48.0088 8.86792 47.8401 9.09612 47.7463 9.38044C47.6526 9.66476 47.6076 9.87799 47.6076 10.0164L46.7413 9.81814C46.9551 8.37411 47.7501 7.65209 49.1301 7.65209C49.7938 7.65209 50.3226 7.83914 50.7088 8.20576C51.0988 8.57612 51.2938 9.00634 51.2938 9.50015C51.2938 10.1324 50.9938 10.6262 50.3938 10.9741C50.7426 11.0714 51.0313 11.2659 51.2676 11.5614C51.5001 11.857 51.6201 12.2124 51.6201 12.6239C51.6201 13.2112 51.3913 13.6976 50.9376 14.0941C50.4838 14.4869 49.8801 14.6852 49.1338 14.6852C47.8438 14.6852 47.0076 14.0081 46.6176 12.6501ZM55.8651 13.9519C55.5538 14.2176 55.2538 14.4009 54.9651 14.5094C54.6763 14.6178 54.3688 14.674 54.0388 14.674C53.4951 14.674 53.0788 14.543 52.7863 14.2774C52.4938 14.0155 52.3476 13.6789 52.3476 13.2673C52.3476 13.0279 52.4038 12.8072 52.5126 12.6052C52.6251 12.4069 52.7676 12.2461 52.9476 12.1263C53.1276 12.0066 53.3263 11.9131 53.5513 11.8532C53.7163 11.8121 53.9638 11.7709 54.2976 11.7298C54.9726 11.6512 55.4751 11.554 55.7938 11.4417C55.7976 11.3295 55.7976 11.2547 55.7976 11.2248C55.7976 10.8843 55.7188 10.6449 55.5576 10.5065C55.3438 10.3194 55.0251 10.2259 54.6013 10.2259C54.2076 10.2259 53.9151 10.297 53.7276 10.4317C53.5401 10.5701 53.4013 10.8132 53.3113 11.1649L52.4938 11.0527C52.5688 10.701 52.6888 10.4204 52.8613 10.2035C53.0338 9.98648 53.2813 9.82188 53.6038 9.70591C53.9263 9.58994 54.3013 9.53008 54.7288 9.53008C55.1526 9.53008 55.4938 9.57871 55.7601 9.67972C56.0226 9.78073 56.2176 9.90418 56.3413 10.0538C56.4651 10.2035 56.5513 10.3943 56.6038 10.6225C56.6301 10.7646 56.6451 11.0227 56.6451 11.3894V12.4967C56.6451 13.2711 56.6638 13.7612 56.6976 13.9669C56.7313 14.1727 56.8026 14.3709 56.9038 14.5617H56.0263C55.9438 14.3859 55.8876 14.1802 55.8651 13.9445V13.9519ZM55.7976 12.1002C55.4938 12.2236 55.0363 12.3284 54.4251 12.4144C54.0801 12.463 53.8363 12.5191 53.6901 12.579C53.5476 12.6426 53.4388 12.7324 53.3601 12.8484C53.2813 12.9681 53.2438 13.099 53.2438 13.2449C53.2438 13.4656 53.3263 13.6489 53.4988 13.7986C53.6676 13.9445 53.9151 14.0193 54.2413 14.0193C54.5638 14.0193 54.8526 13.9482 55.1038 13.8098C55.3551 13.6714 55.5388 13.4806 55.6588 13.2374C55.7488 13.0504 55.7938 12.7735 55.7938 12.4069L55.7976 12.1039V12.1002ZM60.7776 9.63857V10.3307H58.7676V14.5692H57.9276V9.63857H60.7776ZM61.4038 16.4622V9.63857H62.1651V10.2858C62.3451 10.0351 62.5476 9.84806 62.7763 9.72087C63.0013 9.59742 63.2751 9.53382 63.5976 9.53382C64.0213 9.53382 64.3926 9.64231 64.7151 9.85929C65.0376 10.0763 65.2813 10.3793 65.4463 10.7721C65.6113 11.1649 65.6938 11.5989 65.6938 12.0665C65.6938 12.5678 65.6038 13.0204 65.4238 13.4245C65.2438 13.8285 64.9776 14.1353 64.6326 14.3522C64.2876 14.5655 63.9238 14.674 63.5451 14.674C63.2638 14.674 63.0163 14.6141 62.7951 14.4981C62.5738 14.3822 62.3901 14.2325 62.2476 14.053V16.4584H61.4076L61.4038 16.4622ZM62.1651 12.1338C62.1651 12.7661 62.2926 13.2337 62.5476 13.5367C62.8063 13.8397 63.1176 13.9931 63.4813 13.9931C63.8526 13.9931 64.1713 13.836 64.4338 13.5217C64.7001 13.2075 64.8313 12.7249 64.8313 12.0665C64.8313 11.438 64.7038 10.9704 64.4451 10.6599C64.1863 10.3494 63.8788 10.1922 63.5188 10.1922C63.1626 10.1922 62.8476 10.3568 62.5776 10.6898C62.3038 11.0227 62.1651 11.5053 62.1651 12.1376V12.1338ZM66.5563 16.4659L66.4626 15.6915C66.6463 15.7402 66.8038 15.7663 66.9426 15.7663C67.1301 15.7663 67.2801 15.7364 67.3888 15.6728C67.5013 15.6092 67.5951 15.5232 67.6663 15.4147C67.7188 15.3324 67.8051 15.1229 67.9213 14.7899C67.9363 14.745 67.9626 14.6777 67.9963 14.5842L66.1213 9.63857H67.0176L68.0488 12.4855C68.1838 12.8446 68.3038 13.2262 68.4088 13.6227C68.5063 13.2486 68.6188 12.8783 68.7538 12.5117L69.8076 9.63483H70.6438L68.7763 14.6515C68.5738 15.1902 68.4163 15.5606 68.3038 15.7663C68.1538 16.0394 67.9813 16.2414 67.7901 16.3686C67.5951 16.4958 67.3663 16.5594 67.1001 16.5594C66.9388 16.5594 66.7588 16.5258 66.5601 16.4584L66.5563 16.4659ZM72.4513 12.3358V11.6812C72.8038 11.6774 73.0438 11.6625 73.1713 11.64C73.2988 11.6138 73.4226 11.5427 73.5351 11.4193C73.6476 11.2958 73.7076 11.1425 73.7076 10.9554C73.7076 10.7309 73.6326 10.5514 73.4826 10.4167C73.3326 10.282 73.1376 10.2147 72.8976 10.2147C72.4251 10.2147 72.0951 10.4915 71.9076 11.0414L71.1088 10.9068C71.3563 9.98648 71.9563 9.53008 72.9051 9.53008C73.4338 9.53008 73.8463 9.67224 74.1463 9.9603C74.4463 10.2484 74.5963 10.5888 74.5963 10.9853C74.5963 11.3856 74.4013 11.7073 74.0113 11.943C74.2588 12.0777 74.4463 12.2461 74.5701 12.4518C74.6938 12.6576 74.7576 12.9007 74.7576 13.185C74.7576 13.6265 74.5963 13.9856 74.2738 14.2587C73.9513 14.5355 73.4976 14.6702 72.9163 14.6702C71.7876 14.6702 71.1351 14.1727 70.9551 13.1776L71.7463 13.0055C71.8176 13.3197 71.9638 13.5629 72.1813 13.735C72.3988 13.9071 72.6501 13.9931 72.9313 13.9931C73.2126 13.9931 73.4488 13.9145 73.6363 13.7537C73.8238 13.5966 73.9176 13.3908 73.9176 13.1439C73.9176 12.9531 73.8576 12.7848 73.7413 12.6426C73.6251 12.5004 73.4976 12.4107 73.3663 12.377C73.2313 12.3396 72.9913 12.3246 72.6426 12.3246C72.6126 12.3246 72.5488 12.3246 72.4513 12.3284V12.3358ZM75.7213 9.63857H76.5613V13.3983L78.8901 9.63857H79.7901V14.5692H78.9501V10.8319L76.6251 14.5692H75.7213V9.63857ZM84.6051 9.63857V10.3307H83.0226V14.5692H82.1826V10.3307H80.6001V9.63857H84.6051ZM88.6701 12.9755L89.5363 13.0878C89.4013 13.5891 89.1501 13.9819 88.7788 14.2587C88.4113 14.5355 87.9388 14.674 87.3688 14.674C86.6488 14.674 86.0751 14.4532 85.6551 14.0081C85.2313 13.5666 85.0213 12.9456 85.0213 12.145C85.0213 11.3183 85.2351 10.6748 85.6626 10.2184C86.0901 9.76202 86.6451 9.53382 87.3238 9.53382C87.9838 9.53382 88.5201 9.75828 88.9401 10.2035C89.3563 10.6524 89.5663 11.2809 89.5663 12.0927C89.5663 12.1413 89.5663 12.2161 89.5626 12.3134H85.8801C85.9101 12.8521 86.0638 13.2673 86.3413 13.5554C86.6151 13.8435 86.9601 13.9856 87.3726 13.9856C87.6801 13.9856 87.9426 13.9033 88.1563 13.7425C88.3738 13.5816 88.5463 13.3235 88.6738 12.9681L88.6701 12.9755ZM85.9251 11.6363H88.6776C88.6401 11.221 88.5351 10.9105 88.3626 10.7048C88.0963 10.383 87.7513 10.2222 87.3276 10.2222C86.9451 10.2222 86.6226 10.3494 86.3601 10.6075C86.1013 10.8656 85.9551 11.2061 85.9251 11.64V11.6363ZM93.2413 9.64231H95.1688C95.6413 9.64231 95.9938 9.68346 96.2263 9.76202C96.4551 9.84058 96.6538 9.98648 96.8188 10.196C96.9838 10.4092 97.0663 10.6599 97.0663 10.9554C97.0663 11.1911 97.0176 11.3968 96.9201 11.5727C96.8226 11.7485 96.6763 11.8944 96.4776 12.0141C96.7101 12.0927 96.9013 12.2348 97.0551 12.4481C97.2088 12.6576 97.2838 12.9119 97.2838 13.2C97.2538 13.6676 97.0851 14.0155 96.7813 14.24C96.4776 14.4682 96.0351 14.5804 95.4576 14.5804H93.2338V9.64979L93.2413 9.64231ZM94.0813 11.7223H94.9701C95.3226 11.7223 95.5701 11.7036 95.7013 11.6662C95.8363 11.6288 95.9526 11.554 96.0576 11.438C96.1626 11.3258 96.2151 11.1911 96.2151 11.0302C96.2151 10.7684 96.1213 10.5888 95.9413 10.484C95.7576 10.3793 95.4426 10.3307 95.0001 10.3307H94.0851V11.7186L94.0813 11.7223ZM94.0813 13.8884H95.1801C95.6526 13.8884 95.9788 13.8322 96.1551 13.7237C96.3313 13.6115 96.4251 13.4245 96.4326 13.1551C96.4326 12.998 96.3801 12.8521 96.2788 12.7174C96.1738 12.5827 96.0426 12.4967 95.8776 12.463C95.7126 12.4256 95.4501 12.4107 95.0901 12.4107H94.0776V13.8921L94.0813 13.8884Z" fill="white"/>
</svg>