<!-- icon666.com - MILLIONS vector ICONS FREE --><svg xmlns="http://www.w3.org/2000/svg" viewBox="0 0 64 64"><g id="Outline_Up3"><path d="M59,9H56V5a1,1,0,0,0-1-1H51a1,1,0,0,0-1,1V6H5A1,1,0,0,0,4,7V55a1,1,0,0,0,1,1H6v3a1,1,0,0,0,1,1h6a1,1,0,0,0,.89-.55L15.62,56H38.38l1.73,3.45A1,1,0,0,0,41,60h6a1,1,0,0,0,1-1V56h2v1a1,1,0,0,0,1,1h4a1,1,0,0,0,1-1V21h3a1,1,0,0,0,1-1V10A1,1,0,0,0,59,9ZM12.38,58H8V56h5.38ZM46,58H41.62l-1-2H46Zm4-4H6V8H50Zm4,2H52V6h2Zm4-37H56V11h2Z"></path><path d="M9,52H47a1,1,0,0,0,1-1V11a1,1,0,0,0-1-1H9a1,1,0,0,0-1,1V51A1,1,0,0,0,9,52Zm16-2H17V38h2a1,1,0,0,0,1-1V33a1,1,0,0,0-1-1V30h4v2a1,1,0,0,0-1,1v4a1,1,0,0,0,1,1h2Zm14,0H31V48h8Zm0-4H31V42h8Zm-8-6a4,4,0,0,1,2.4-3.66,1,1,0,0,0,.6-.92V34h2v1.42a1,1,0,0,0,.6.92A4,4,0,0,1,39,40Zm3-8V30h2v2ZM10,12H46V24H42.46A6,6,0,1,0,33,16.69a6,6,0,0,0-10,0A6,6,0,1,0,13.54,24H10Zm30,9h1.86a4,4,0,1,1,0-2H40a1,1,0,0,0,0,2Zm-6.46,3H32.46a7.12,7.12,0,0,0,.54-.69A7.12,7.12,0,0,0,33.54,24ZM30,21h1.86a4,4,0,1,1,0-2H30a1,1,0,0,0,0,2Zm-6.46,3H22.46a7.12,7.12,0,0,0,.54-.69A7.12,7.12,0,0,0,23.54,24ZM20,21h1.86a4,4,0,1,1,0-2H20a1,1,0,0,0,0,2ZM10,26H46V50H41V40a6,6,0,0,0-3-5.19V29a1,1,0,0,0-1-1H33a1,1,0,0,0-1,1v5.81A6,6,0,0,0,29,40V50H27V37a1,1,0,0,0-1-1H24V34a1,1,0,0,0,1-1V29a1,1,0,0,0-1-1H18a1,1,0,0,0-1,1v4a1,1,0,0,0,1,1v2H16a1,1,0,0,0-1,1V50H10Z"></path></g></svg>