<!-- icon666.com - MILLIONS vector ICONS FREE --><svg id="Layer_1" enable-background="new 0 0 480.004 480.004" viewBox="0 0 480.004 480.004" xmlns="http://www.w3.org/2000/svg"><g><path d="m428.587 19.192-17.559 5.701c-4.202 1.364-6.503 5.877-5.139 10.08 1.366 4.203 5.878 6.502 10.08 5.138l17.559-5.701c5.174-1.68 10.471 2.17 10.471 7.609v127.966c0 5.44-5.298 9.289-10.471 7.609l-51.047-16.573c-3.442-38.269-3.289-77.008.48-115.233.404-4.093-2.361-7.825-6.395-8.63-88.549-17.678-139.337-29.938-230.365-36.986-21.292-1.648-40.861 8.681-51.642 25.832h-25.358c-22.086 0-41.085 15.685-45.176 37.294-5.372 28.371-5.361 57.146.03 85.527 2.854 15.025 13.006 27.582 27.157 33.588 4.042 1.715 8.754-.147 10.49-4.239 1.727-4.067-.172-8.763-4.238-10.49-9.223-3.914-15.836-12.081-17.69-21.846-5.017-26.403-5.025-53.172-.028-79.565 2.662-14.063 15.05-24.27 29.455-24.27h18.503c-9.711 37.995-10.642 83.861-.187 127.283 6.103 25.34 28.514 42.723 54.243 42.721 3.088-.001 5.354-.237 10.115-.624 8.428 10.116 20.113 34.913 31.695 94.605.904 4.656 5.65 7.524 10.209 6.122 21.768-6.706 25.391-25.936 28.301-41.387.292-1.55.583-3.093.89-4.615.872-4.332-1.932-8.55-6.263-9.422-4.324-.869-8.55 1.931-9.423 6.262-2.344 11.661-3.674 23.054-10.155 29.305-8.021-38.505-16.917-65.749-26.949-82.48 25.577-2.427 49.545-5.474 74.286-9.445-20.423 45.74-9.184 124.151 2.2 172.994 1.746 7.492-3.967 14.682-11.696 14.682h-12.176c-6.046 0-11.165-4.523-11.908-10.521-1.192-9.628-2.486-19.216-3.846-28.497-.64-4.372-4.709-7.397-9.075-6.756-4.372.641-7.396 4.704-6.757 9.075 1.343 9.164 2.621 18.632 3.799 28.144 1.734 13.999 13.68 24.555 27.787 24.555h1.679c3.645 30.327 13.1 49.789 28.813 59.364 25.331 15.435 59.599 1.306 92.738-12.357 26.618-10.974 54.144-22.32 68.876-13.489 8.196 4.913 13.29 16.782 15.14 35.277.436 4.367 4.326 7.604 8.756 7.165 4.396-.44 7.604-4.36 7.164-8.756-2.413-24.138-9.882-39.645-22.833-47.409-21.629-12.966-51.536-.636-83.201 12.42-29.453 12.143-59.912 24.699-78.313 13.486-10.929-6.659-18.007-22.206-21.089-46.26 15.237-3.051 25.353-18.182 21.725-33.753-14.741-63.258-21.41-142.492 4.083-175.161 4.495-5.759-.489-14.061-7.683-12.803-38.109 6.653-73.17 11.019-113.681 14.155-19.663 1.528-37.295-11.237-41.896-30.342-9.375-38.939-9.381-80.092-.019-119.01 4.538-18.868 21.971-31.948 41.912-30.407 71.072 5.504 117.687 14.304 177.064 26.325-1.96 26.928-2.612 54.173-1.904 81.104.116 4.423 3.801 7.907 8.207 7.787 4.417-.116 7.903-3.791 7.787-8.208-.676-25.722-.093-51.738 1.714-77.474l28.535 5.776c-3.15 36.249-3.15 72.889 0 109.139-10.25 2.059-54.968 11.148-66.989 13.521-4.335.855-7.155 5.063-6.3 9.397.855 4.335 5.068 7.154 9.397 6.3 12.066-2.381 59.958-12.116 72.042-14.533l54.069 17.554c15.604 5.069 31.411-6.607 31.411-22.827v-127.966c.001-16.321-15.889-27.866-31.411-22.827z"></path><path d="m146 144.003c-4.418 0-8 3.582-8 8s3.582 8 8 8h47c4.418 0 8-3.582 8-8s-3.582-8-8-8z"></path></g></svg>