<!-- icon666.com - MILLIONS vector ICONS FREE --><svg id="Capa_1" enable-background="new 0 0 512 512" viewBox="0 0 512 512" xmlns="http://www.w3.org/2000/svg"><g><path d="m494.5 73.5h-477c-9.649 0-17.5 7.851-17.5 17.5v38.924c0 4.143 3.358 7.5 7.5 7.5s7.5-3.357 7.5-7.5v-38.924c0-1.379 1.122-2.5 2.5-2.5h333.14v335h-333.14c-1.378 0-2.5-1.121-2.5-2.5v-256.076c0-4.143-3.358-7.5-7.5-7.5s-7.5 3.357-7.5 7.5v256.076c0 9.649 7.851 17.5 17.5 17.5h402.139c4.142 0 7.5-3.357 7.5-7.5s-3.358-7.5-7.5-7.5h-53.999v-335h128.86c1.378 0 2.5 1.121 2.5 2.5v330c0 1.379-1.122 2.5-2.5 2.5h-39.861c-4.142 0-7.5 3.357-7.5 7.5s3.358 7.5 7.5 7.5h39.861c9.649 0 17.5-7.851 17.5-17.5v-330c0-9.649-7.851-17.5-17.5-17.5z"></path><path d="m136.351 218.361c-.411.273-.794.588-1.143.937-8.483 8.483-7.892 20.785 1.542 32.105 1.483 1.779 3.617 2.698 5.766 2.698 1.693 0 3.396-.57 4.797-1.738 3.182-2.651 3.612-7.381.96-10.563-2.857-3.428-5.59-8.138-2.833-11.482 3.421-2.397 5.94-4.998 8.312-8.556.173-.259.329-.528.468-.806 2.397-4.794 4.752-14.501-6.405-25.658-2.929-2.928-7.678-2.928-10.606 0-2.929 2.93-2.929 7.678 0 10.607 3.257 3.256 4.513 5.948 3.741 8.009-1.329 1.899-2.582 3.103-4.599 4.447z"></path><path d="m176.164 218.361c-.411.273-.794.588-1.143.937-8.483 8.483-7.892 20.785 1.542 32.105 1.483 1.779 3.617 2.698 5.766 2.698 1.693 0 3.396-.57 4.797-1.738 3.182-2.651 3.612-7.381.96-10.563-2.857-3.428-5.59-8.138-2.833-11.482 3.421-2.397 5.94-4.998 8.312-8.556.173-.259.329-.528.468-.806 2.397-4.794 4.752-14.501-6.405-25.658-2.929-2.928-7.678-2.928-10.606 0-2.929 2.93-2.929 7.678 0 10.607 3.257 3.256 4.513 5.948 3.741 8.009-1.329 1.899-2.582 3.103-4.599 4.447z"></path><path d="m215.977 218.361c-.411.273-.794.588-1.143.937-8.483 8.483-7.892 20.785 1.542 32.105 1.483 1.779 3.617 2.698 5.766 2.698 1.693 0 3.396-.57 4.797-1.738 3.182-2.651 3.612-7.381.96-10.563-2.857-3.428-5.59-8.138-2.833-11.482 3.421-2.397 5.94-4.998 8.312-8.556.173-.259.329-.528.468-.806 2.397-4.794 4.752-14.501-6.405-25.658-2.929-2.928-7.678-2.928-10.606 0-2.929 2.93-2.929 7.678 0 10.607 3.257 3.256 4.513 5.948 3.741 8.009-1.329 1.899-2.582 3.103-4.599 4.447z"></path><path d="m335.08 163.327v-37.327c0-7.995-6.505-14.5-14.5-14.5h-268.08c-7.995 0-14.5 6.505-14.5 14.5v260c0 7.995 6.505 14.5 14.5 14.5h268.08c7.995 0 14.5-6.505 14.5-14.5v-37.327c0-2.786-.807-5.509-2.334-7.875-16.307-25.255-24.926-54.578-24.926-84.798s8.619-59.543 24.926-84.798c1.527-2.366 2.334-5.089 2.334-7.875zm-15 222.173h-267.08v-48.6h260.076c2.173 4.057 4.496 8.044 7.004 11.935zm-187.991-84.888v-19.118h100.902v19.118c0 11.737-9.549 21.286-21.286 21.286h-58.33c-11.737 0-21.286-9.548-21.286-21.286zm187.991-137.447c-17.833 27.662-27.26 59.763-27.26 92.835 0 22.809 4.487 45.153 13.12 65.9h-64.876c4.352-5.984 6.927-13.339 6.927-21.288v-26.618c0-4.143-3.358-7.5-7.5-7.5h-115.902c-4.142 0-7.5 3.357-7.5 7.5v26.618c0 7.949 2.576 15.304 6.927 21.288h-71.016v-195.4h267.08z"></path><path d="m482 116c0-6.893-5.607-12.5-12.5-12.5h-64.722c-6.893 0-12.5 5.607-12.5 12.5v29.138c0 6.893 5.607 12.5 12.5 12.5h64.722c6.893 0 12.5-5.607 12.5-12.5zm-15 26.638h-59.722v-24.138h59.722z"></path><path d="m478.273 217.277c0-22.682-18.453-41.134-41.134-41.134s-41.134 18.452-41.134 41.134 18.453 41.135 41.134 41.135 41.134-18.453 41.134-41.135zm-67.268 0c0-14.41 11.724-26.134 26.134-26.134s26.134 11.724 26.134 26.134c0 14.411-11.724 26.135-26.134 26.135s-26.134-11.724-26.134-26.135z"></path><path d="m411.642 286.541h-10c-4.142 0-7.5 3.357-7.5 7.5s3.358 7.5 7.5 7.5h10c4.142 0 7.5-3.357 7.5-7.5s-3.358-7.5-7.5-7.5z"></path><path d="m472.637 286.541h-10c-4.142 0-7.5 3.357-7.5 7.5s3.358 7.5 7.5 7.5h10c4.142 0 7.5-3.357 7.5-7.5s-3.358-7.5-7.5-7.5z"></path><path d="m411.642 327.236h-10c-4.142 0-7.5 3.357-7.5 7.5s3.358 7.5 7.5 7.5h10c4.142 0 7.5-3.357 7.5-7.5s-3.358-7.5-7.5-7.5z"></path><path d="m472.637 327.236h-10c-4.142 0-7.5 3.357-7.5 7.5s3.358 7.5 7.5 7.5h10c4.142 0 7.5-3.357 7.5-7.5s-3.358-7.5-7.5-7.5z"></path></g></svg>