<!-- icon666.com - MILLIONS vector ICONS FREE --><svg version="1.1" id="Layer_1" xmlns="http://www.w3.org/2000/svg" xmlns:xlink="http://www.w3.org/1999/xlink" x="0px" y="0px" viewBox="0 0 512 512" style="enable-background:new 0 0 512 512;" xml:space="preserve"><g><g><path d="M457.24,417.666c-0.33-0.467-0.692-0.918-1.106-1.332L338.311,298.51h40.822c-0.587,2.288-0.901,4.684-0.901,7.152 c0,15.858,12.901,28.76,28.76,28.76s28.76-12.901,28.76-28.76c0-9.358-4.494-17.682-11.434-22.938 c-0.377-0.574-0.792-1.127-1.29-1.625L316.535,174.607h22.609c-0.674,2.439-1.041,5.003-1.041,7.652 c0,15.858,12.901,28.76,28.76,28.76c15.858,0,28.759-12.901,28.759-28.76c0-9.512-4.645-17.956-11.782-23.195 c-0.41-0.665-0.876-1.301-1.444-1.87L282.97,57.77c5.128-6.115,8.224-13.99,8.224-22.578C291.193,15.787,275.405,0,256,0 c-19.405,0-35.193,15.787-35.193,35.192c0,8.587,3.095,16.461,8.224,22.577l-99.425,99.426c-0.568,0.568-1.034,1.204-1.444,1.87 c-7.137,5.238-11.782,13.683-11.782,23.195c0,15.858,12.901,28.76,28.759,28.76c15.859,0,28.76-12.901,28.76-28.76 c0-2.65-0.368-5.215-1.041-7.652h22.609L88.973,281.099c-0.498,0.498-0.914,1.052-1.29,1.625 c-6.941,5.256-11.435,13.58-11.435,22.938c0,15.858,12.901,28.76,28.76,28.76c15.859,0,28.76-12.901,28.76-28.76 c0-2.468-0.313-4.864-0.901-7.152h40.822L55.865,416.333c-0.414,0.414-0.775,0.864-1.106,1.332 c-8.171,5.078-13.625,14.133-13.625,24.44c0,15.858,12.901,28.76,28.759,28.76c15.859,0,28.76-12.902,28.76-28.76 c0-2.908-0.438-5.714-1.243-8.361h100.234v68.056c0,5.633,4.567,10.199,10.199,10.199h96.315c5.632,0,10.199-4.566,10.199-10.199 v-68.056H414.59c-0.807,2.648-1.243,5.454-1.243,8.361c0,15.858,12.901,28.76,28.76,28.76c15.858,0,28.759-12.902,28.759-28.76 C470.866,431.798,465.411,422.744,457.24,417.666z M402.682,298.51h8.62c2.423,1.466,4.051,4.118,4.051,7.152 c0,4.61-3.751,8.361-8.361,8.361c-4.611,0-8.361-3.751-8.361-8.361C398.631,302.63,400.259,299.977,402.682,298.51z M363.505,174.607h6.712c2.942,1.296,5.005,4.237,5.005,7.652c0.001,4.611-3.75,8.361-8.36,8.361c-4.611,0-8.361-3.75-8.361-8.361 C358.5,178.843,360.562,175.903,363.505,174.607z M256,20.398c8.158,0,14.795,6.637,14.795,14.794 c0,8.157-6.637,14.795-14.795,14.795s-14.795-6.637-14.795-14.794C241.205,27.036,247.842,20.398,256,20.398z M145.139,190.621 c-4.61,0-8.36-3.75-8.36-8.361c0-3.417,2.062-6.357,5.005-7.652h6.712c2.942,1.295,5.005,4.236,5.005,7.652 C153.5,186.871,149.749,190.621,145.139,190.621z M105.008,314.023c-4.61,0-8.361-3.751-8.361-8.361 c0-3.032,1.628-5.685,4.051-7.152h8.62c2.423,1.467,4.051,4.12,4.051,7.152C113.369,310.272,109.618,314.023,105.008,314.023z M69.894,450.467c-4.61,0-8.36-3.751-8.36-8.361s3.751-8.361,8.36-8.361c4.61,0,8.361,3.751,8.361,8.361 C78.255,446.717,74.504,450.467,69.894,450.467z M293.958,491.602h-75.917v-57.857h75.917V491.602z M87.7,413.346l117.824-117.823 c2.916-2.917,3.789-7.304,2.211-11.114c-1.579-3.811-5.297-6.296-9.423-6.296H120.81l10.648-10.648l121.943-29.73 c5.473-1.334,8.827-6.852,7.494-12.325c-1.335-5.473-6.859-8.826-12.325-7.493l-89.348,21.784l68.08-68.08 c2.916-2.917,3.789-7.304,2.211-11.115c-1.579-3.811-5.297-6.296-9.423-6.296h-58.648l85.12-85.12 c3.007,0.838,6.169,1.296,9.439,1.296c3.27,0,6.433-0.458,9.439-1.296l22.051,22.051l-30.895,7.532 c-5.473,1.334-8.827,6.852-7.494,12.325c1.136,4.661,5.308,7.786,9.901,7.786c0.8,0,1.612-0.095,2.423-0.293l42.946-10.469 l46.188,46.188h-58.648c-4.126,0-7.844,2.486-9.423,6.296c-1.578,3.811-0.705,8.198,2.211,11.115l106.492,106.491h-77.503 c-4.126,0-7.844,2.486-9.423,6.296c-1.578,3.81-0.705,8.198,2.211,11.114l24.662,24.662l-139.756,34.073 c-5.473,1.334-8.827,6.852-7.494,12.325c1.136,4.661,5.308,7.786,9.901,7.786c0.8,0,1.612-0.095,2.423-0.293l151.493-36.934 c0.102-0.024,0.198-0.061,0.299-0.089l76.295,76.295H87.7z M442.107,450.467c-4.611,0-8.361-3.751-8.361-8.361 s3.751-8.361,8.361-8.361c4.61,0,8.36,3.751,8.36,8.361C450.467,446.717,446.716,450.467,442.107,450.467z"></path></g></g><g><g><path d="M173.609,369.334c-1.335-5.474-6.859-8.826-12.325-7.493l-14.045,3.424c-5.473,1.334-8.827,6.852-7.494,12.325 c1.136,4.661,5.308,7.786,9.901,7.786c0.8,0,1.612-0.095,2.423-0.293l14.045-3.424 C171.587,380.324,174.942,374.806,173.609,369.334z"></path></g></g><g><g><path d="M309.934,213.454c-1.335-5.473-6.857-8.825-12.325-7.493l-14.929,3.639c-5.473,1.334-8.827,6.852-7.494,12.325 c1.136,4.662,5.308,7.786,9.901,7.786c0.8,0,1.612-0.095,2.423-0.293l14.929-3.639 C307.913,224.445,311.267,218.927,309.934,213.454z"></path></g></g><g><g><path d="M238.821,113.504c-1.334-5.473-6.857-8.825-12.325-7.493l-8.027,1.956c-5.473,1.334-8.827,6.852-7.494,12.324 c1.136,4.661,5.308,7.786,9.901,7.786c0.8,0,1.612-0.095,2.423-0.293l8.027-1.956C236.8,124.494,240.155,118.976,238.821,113.504z "></path></g></g></svg>