<!-- icon666.com - MILLIONS vector ICONS FREE --><svg id="Layer_1" enable-background="new 0 0 512 512" viewBox="0 0 512 512" xmlns="http://www.w3.org/2000/svg"><g id="_x32_0_No_Smoking"><g><path d="m396.711 96.339c1.055-1.058 1.619-2.51 1.555-4.005-.065-1.492-.756-2.89-1.901-3.852-39.305-32.984-89.154-51.148-140.365-51.148-120.573 0-218.666 98.093-218.666 218.666 0 51.26 18.198 101.148 51.245 140.477.961 1.144 2.36 1.83 3.854 1.896 1.568.054 2.977-.531 4.002-1.558 58.884-58.923 238.851-239.01 300.276-300.476zm-236.407 221.473h-64.411c-2.243 0-4-1.758-4-4v-35.68c0-2.243 1.758-4 4-4h77.333v30.749zm23.59-43.732h20.113l-20.113 20.126zm-90.834 111.021c-29.099-36.674-45.06-82.286-45.06-129.101 0-114.693 93.307-208 208-208 46.766 0 92.343 15.93 128.995 44.972l-170.329 170.442c-12.145.005 43.994-.019-118.773.053-8.089 0-14.667 6.58-14.667 14.667v35.68c0 8.086 6.578 14.667 14.667 14.667h53.751z"></path><path d="m425.461 170.138c-2.946 0-5.334 2.388-5.334 5.334v23.753c0 7.164-5.828 12.992-12.995 12.992-13.045 0-23.659 10.615-23.659 23.662v9.99c0 2.946 2.388 5.334 5.334 5.334s5.334-2.388 5.334-5.334v-9.99c0-7.164 5.828-12.995 12.992-12.995 13.047 0 23.662-10.615 23.662-23.659v-23.753c-.001-2.946-2.389-5.334-5.334-5.334z"></path><path d="m406.242 178.136c0-2.946-2.388-5.334-5.334-5.334s-5.334 2.388-5.334 5.334c0 7.164-5.828 12.992-12.995 12.992-13.045 0-23.659 10.615-23.659 23.659v9.99c0 2.946 2.388 5.334 5.334 5.334s5.334-2.388 5.334-5.334v-9.99c0-7.164 5.828-12.992 12.992-12.992 13.047-.001 23.662-10.616 23.662-23.659z"></path><path d="m423.422 115.523c-.961-1.144-2.36-1.83-3.854-1.896-1.497-.068-2.946.5-4.002 1.558-29.161 29.18-267.1 267.279-300.276 300.477-1.055 1.058-1.619 2.51-1.555 4.005.065 1.492.756 2.89 1.901 3.852 39.304 32.985 89.153 51.149 140.365 51.149 120.573 0 218.666-98.093 218.666-218.666-.001-51.265-18.198-101.153-51.245-140.479zm-56.133 202.344h-139.19l43.757-43.787h95.433zm-111.289 146.133c-46.766 0-92.343-15.93-128.995-44.972l90.434-90.495c83.962-.015 133.799.031 178.216-.034 8.092 0 14.672-6.58 14.672-14.669v-35.713c0-8.089-6.58-14.669-14.672-14.669-149.913-.044-104.211-.031-113.14-.034l136.424-136.516c29.098 36.672 45.059 82.284 45.059 129.101.002 114.694-93.305 208.001-207.998 208.001zm143.661-182.485h-6.184c-2.946 0-5.334 2.388-5.334 5.334s2.388 5.334 5.334 5.334h6.184v7.583h-6.184c-2.946 0-5.334 2.388-5.334 5.334s2.388 5.334 5.334 5.334h6.184v3.398c0 2.208-1.797 4.002-4.005 4.002h-17.682v-43.719h17.682c2.208 0 4.005 1.794 4.005 4.002z"></path><path d="m256 0c-141.159 0-256 114.841-256 256s114.841 256 256 256 256-114.841 256-256-114.841-256-256-256zm0 501.333c-135.276 0-245.333-110.057-245.333-245.333s110.057-245.333 245.333-245.333 245.333 110.057 245.333 245.333-110.057 245.333-245.333 245.333z"></path></g></g></svg>