<?xml version="1.0" encoding="iso-8859-1"?>
<!-- Generator: Adobe Illustrator 19.1.0, SVG Export Plug-In . SVG Version: 6.00 Build 0)  -->
<svg version="1.1" id="Capa_1" xmlns="http://www.w3.org/2000/svg" xmlns:xlink="http://www.w3.org/1999/xlink" x="0px" y="0px"
	 viewBox="0 0 60 60" style="enable-background:new 0 0 60 60;" xml:space="preserve">
<g>
	<g>
		<g id="group-19svg">
			<path id="path-1_9_" d="M45.5,54.5c0,3.038-2.463,5.5-5.5,5.5H20c-3.037,0-5.5-2.462-5.5-5.5v-49C14.5,2.462,16.963,0,20,0h20
				c3.037,0,5.5,2.462,5.5,5.5V54.5z M42.5,5.5C42.5,4.119,41.381,3,40,3H20c-1.381,0-2.5,1.119-2.5,2.5v49
				c0,1.381,1.119,2.5,2.5,2.5h20c1.381,0,2.5-1.119,2.5-2.5V5.5z"/>
			<path id="path-2_9_" d="M42.073,32h-26c-0.828,0-1.5-0.671-1.5-1.5s0.672-1.5,1.5-1.5h26c0.828,0,1.5,0.671,1.5,1.5
				S42.901,32,42.073,32z"/>
			<path id="path-3_9_" d="M37.5,14.5c0,0.829-0.672,1.5-1.5,1.5H25c-0.828,0-1.5-0.671-1.5-1.5v-5C23.5,8.671,24.172,8,25,8h11
				c0.828,0,1.5,0.671,1.5,1.5V14.5z M26.5,13h8v-2h-8V13z"/>
			<path id="path-4_9_" d="M25.905,48.987c-0.448,0-0.892-0.2-1.187-0.583c-0.507-0.656-0.386-1.597,0.269-2.104l8.047-6.218
				c0.653-0.506,1.598-0.386,2.104,0.27c0.506,0.655,0.385,1.597-0.27,2.104l-8.047,6.218
				C26.549,48.885,26.226,48.987,25.905,48.987z"/>
			<path id="path-5_9_" d="M33.95,48.987c-0.32,0-0.643-0.102-0.916-0.313l-8.047-6.218c-0.655-0.507-0.776-1.449-0.269-2.104
				c0.506-0.656,1.449-0.776,2.103-0.27l8.047,6.218c0.655,0.507,0.776,1.448,0.27,2.104C34.843,48.787,34.398,48.987,33.95,48.987z
				"/>
			<path id="path-6_8_" d="M30,51.5c-0.828,0-1.5-0.671-1.5-1.5V38c0-0.829,0.672-1.5,1.5-1.5s1.5,0.671,1.5,1.5v12
				C31.5,50.829,30.828,51.5,30,51.5z"/>
		</g>
	</g>
	<g>
	</g>
	<g>
	</g>
	<g>
	</g>
	<g>
	</g>
	<g>
	</g>
	<g>
	</g>
	<g>
	</g>
	<g>
	</g>
	<g>
	</g>
	<g>
	</g>
	<g>
	</g>
	<g>
	</g>
	<g>
	</g>
	<g>
	</g>
	<g>
	</g>
</g>
<g>
</g>
<g>
</g>
<g>
</g>
<g>
</g>
<g>
</g>
<g>
</g>
<g>
</g>
<g>
</g>
<g>
</g>
<g>
</g>
<g>
</g>
<g>
</g>
<g>
</g>
<g>
</g>
<g>
</g>
</svg>
